<svg width="24" height="24" viewBox="0 0 24 28" fill="none" xmlns="http://www.w3.org/2000/svg">
<path d="M21.1875 3.5H16.375V2.625C16.375 1.17523 15.1998 0 13.75 0H10.25C8.80023 0 7.625 1.17523 7.625 2.625V3.5H2.8125C1.6044 3.5 0.625 4.4794 0.625 5.6875V7.4375C0.625 7.92077 1.01673 8.3125 1.5 8.3125H22.5C22.9833 8.3125 23.375 7.92077 23.375 7.4375V5.6875C23.375 4.4794 22.3956 3.5 21.1875 3.5ZM9.375 2.625C9.375 2.14266 9.76766 1.75 10.25 1.75H13.75C14.2323 1.75 14.625 2.14266 14.625 2.625V3.5H9.375V2.625Z" fill="#79B8D1"/>
<path d="M2.28551 10.0625C2.12938 10.0625 2.00496 10.193 2.0124 10.349L2.73428 25.4997C2.801 26.9019 3.95271 28 5.35599 28H18.644C20.0472 28 21.199 26.9019 21.2657 25.4997L21.9876 10.349C21.995 10.193 21.8706 10.0625 21.7144 10.0625H2.28551ZM15.5 12.25C15.5 11.7666 15.8915 11.375 16.375 11.375C16.8584 11.375 17.25 11.7666 17.25 12.25V23.625C17.25 24.1084 16.8584 24.5 16.375 24.5C15.8915 24.5 15.5 24.1084 15.5 23.625V12.25ZM11.125 12.25C11.125 11.7666 11.5165 11.375 12 11.375C12.4834 11.375 12.875 11.7666 12.875 12.25V23.625C12.875 24.1084 12.4834 24.5 12 24.5C11.5165 24.5 11.125 24.1084 11.125 23.625V12.25ZM6.74998 12.25C6.74998 11.7666 7.14154 11.375 7.62498 11.375C8.10842 11.375 8.49998 11.7666 8.49998 12.25V23.625C8.49998 24.1084 8.10842 24.5 7.62498 24.5C7.14154 24.5 6.74998 24.1084 6.74998 23.625V12.25Z" fill="#79B8D1"/>
</svg>
