<svg width="28" height="28" viewBox="0 0 28 28" fill="none" xmlns="http://www.w3.org/2000/svg">
<path d="M22.9997 14C22.4474 14 21.9997 14.4477 21.9997 15V24.9999C21.9997 25.5522 21.552 25.9999 20.9997 25.9999H2.99996C2.44766 25.9999 1.99995 25.5522 1.99995 24.9999V5.00014C1.99995 4.44785 2.44766 4.00014 2.99996 4.00014H14.9998C15.5521 4.00014 15.9998 3.55243 15.9998 3.00013C15.9998 2.44783 15.5521 2.00018 14.9998 2.00018H2.99996C1.34313 2.00018 0 3.34331 0 5.00014V24.9999C0 26.6567 1.34313 27.9998 2.99996 27.9998H20.9997C22.6566 27.9998 23.9997 26.6567 23.9997 24.9999V15C23.9997 14.4477 23.552 14 22.9997 14Z" fill="#F8B190"/>
<path d="M26.879 1.12158C26.161 0.403466 25.1871 0.000112258 24.1717 0.000229444C23.1556 -0.00270021 22.1807 0.401357 21.4647 1.12223L8.29284 14.293C8.18356 14.4031 8.10112 14.5369 8.05185 14.684L6.05189 20.6839C5.87734 21.2079 6.16064 21.7741 6.68464 21.9486C6.7863 21.9825 6.89276 21.9998 6.99987 21.9999C7.10721 21.9997 7.21391 21.9825 7.31586 21.9489L13.3158 19.949C13.4631 19.8998 13.597 19.8169 13.7068 19.707L26.8786 6.53516C28.3736 5.04034 28.3738 2.61658 26.879 1.12158Z" fill="#EF7F5B"/>
</svg>

