<svg width="35" height="35" viewBox="0 0 35 35" fill="none" xmlns="http://www.w3.org/2000/svg">
<path d="M17.5 0C7.84991 0 0 7.85066 0 17.5C0 27.1493 7.84991 35 17.5 35C27.1501 35 35 27.1493 35 17.5C35 7.85066 27.1501 0 17.5 0ZM24.457 18.1131L14.2487 24.6756C14.1291 24.7532 13.9909 24.7917 13.8542 24.7917C13.7346 24.7917 13.6135 24.7617 13.5053 24.7027C13.2703 24.5745 13.125 24.3295 13.125 24.0625V10.9375C13.125 10.6705 13.2703 10.4255 13.5053 10.2973C13.736 10.1706 14.0251 10.1784 14.2487 10.3244L24.457 16.8869C24.665 17.0207 24.7917 17.2522 24.7917 17.5C24.7917 17.7478 24.665 17.9792 24.457 18.1131Z" fill="#EF7F5B"/>
</svg>
